<svg xmlns="http://www.w3.org/2000/svg" xmlns:xlink="http://www.w3.org/1999/xlink" xml:space="preserve" fill-rule="evenodd" clip-rule="evenodd" image-rendering="optimizeQuality" shape-rendering="geometricPrecision" text-rendering="geometricPrecision" version="1.1" viewBox="0 0 6000 3100">
  <defs>
    <linearGradient id="a" x1="2830.97" x2="3154.76" y1="-6.19" y2="3107.26" gradientUnits="userSpaceOnUse">
      <stop offset="0" stop-color="#228b22" stop-opacity="1"/>
      <stop offset=".741" stop-color="#63b81a" stop-opacity="1"/>
      <stop offset="1" stop-color="#a5e612" stop-opacity="1"/>
    </linearGradient>
  </defs>
  <path fill="url(#a)" stroke="#228b22" stroke-miterlimit="22.926" stroke-width="7.62" d="M5422.76 435.67c27.14 0 49.15 23.25 49.15 51.92s-22.01 51.91-49.15 51.91-49.15-23.24-49.15-51.91 22.01-51.92 49.15-51.92zM867.1 1453c0-28.34 1-56 2.99-82.99q2.955-40.125 8.85-78.27c14.42-93.23 41.98-177.56 82.69-253 63.02-116.77 151.06-207.6 264.12-272.47 113.07-64.87 243.74-97.31 392.02-97.31s278.03 32.44 389.24 97.31 198.32 154.77 261.34 269.69c2.42 4.4 4.78 8.83 7.1 13.29 103.87.47 206.55 5.09 307.8 13.69 72.36 6.14 144 14.31 214.84 24.43 72.73 14.66 142.55 35.59 208.4 62.43 46.34 18.89 90.72 40.71 132.76 65.31-32.36-178.12-90.97-338.85-175.83-482.2-137.16-231.69-323.44-409.63-558.84-533.81-235.39-124.18-499.52-186.28-792.37-186.28-303.98 0-576.44 65.8-817.4 197.4-240.95 131.6-430.94 313.24-569.95 544.93S16.34 1252.82 16.34 1553.09c0 296.56 70.43 560.68 211.3 792.37q211.305 347.535 597.75 547.71c257.65 133.45 556.98 200.18 898.03 200.18 270.61 0 509.71-41.7 717.31-125.11 207.59-83.41 379.97-202.96 517.13-358.66-275.06-10.7-1451.39 507.58-2009.14-642.53 87.72 6.07 176.45 9.16 266.07 9.16 868.94 0 1462.82-460.5 2121.34-473.45-89.92-93.28-202.37-167.22-329.64-219.1-65.85-26.83-135.67-47.77-208.4-62.43a3787 3787 0 0 0-214.84-24.43c-106.96-9.08-215.5-13.73-325.36-13.73-607.83 0-998.43 183.25-1390.79 321.83zm556-155.46-12.67-15.11zm3139.08 1165.91a3629 3629 0 0 1-34.19 30.29c-18.42 16.1-37.13 32.1-56.09 47.98-263.69 220.71-537.53 382.89-782.96 475.75l1.2 8.41c309.35-72.86 628.69-106.9 946.4-106.9 369.16 0 720.14 46.26 1037.45 129.56h8.51c.24-3.43.45-6.87.62-10.33l-.45-59.42c-103.92-473.42-707.21-568.52-1120.49-515.34zM3182.06 310.2c491.88 9.67 1168.26 351 1182.45 351 110.47-131.89 227.28-282.97 358.5-395 78.01-66.6 164.17-101 248.71-159.81 1.88-1.31 3.77-2.62 5.66-3.93C4467.8-15.61 3570.58-92.87 3182.06 310.2zm-320.1 2598.33c2.25 3.26 4.57 6.47 6.96 9.64 533.05 708.17 2287.44-883.2 2493.49-2052.7 0 0 149.79-14.92 325.48-207.36h-.4c127.44-74.95 294.46-58.74 281.15-69.68-108.31-68.95-231.49-106.47-282.13-120.01.44 2.12.87 4.25 1.28 6.39-40.27-207.76-214.3-364.05-422.89-364.05-1016.21 0-1349.84 2775.95-2402.94 2797.77zM5687.8 474.86zm2.04 11.22c.63 3.71 1.2 7.44 1.75 11.18-.55-3.74-1.13-7.47-1.75-11.18zm1.75 11.24zm4.41 46zm.43 11.77z"/>
</svg>
